<mxfile host="app.diagrams.net" modified="2021-09-09T11:45:54.520Z" agent="5.0 (Windows NT 10.0; Win64; x64) AppleWebKit/537.36 (KHTML, like Gecko) Chrome/93.0.4577.63 Safari/537.36 Edg/93.0.961.38" etag="yr8DgdRsJu_k029A0EAB" version="15.0.6" type="github">
  <diagram id="TMZ21CO5eV03Qej-yaTY" name="Page-1">
    <mxGraphModel dx="1038" dy="546" grid="1" gridSize="10" guides="1" tooltips="1" connect="1" arrows="1" fold="1" page="1" pageScale="1" pageWidth="827" pageHeight="1169" background="#F4F1DE" math="0" shadow="0">
      <root>
        <mxCell id="0" />
        <mxCell id="1" parent="0" />
        <mxCell id="5C2A1izxAcpHUWStIosM-13" value="PASSAGE PAR UNE SOUSCRIPTION" style="edgeStyle=orthogonalEdgeStyle;rounded=0;orthogonalLoop=1;jettySize=auto;html=1;labelBackgroundColor=#F4F1DE;strokeColor=#E07A5F;fontColor=#393C56;" parent="1" source="5C2A1izxAcpHUWStIosM-1" target="5C2A1izxAcpHUWStIosM-12" edge="1">
          <mxGeometry x="-0.3615" relative="1" as="geometry">
            <mxPoint as="offset" />
          </mxGeometry>
        </mxCell>
        <mxCell id="5C2A1izxAcpHUWStIosM-15" value="" style="edgeStyle=orthogonalEdgeStyle;rounded=0;orthogonalLoop=1;jettySize=auto;html=1;labelBackgroundColor=#F4F1DE;strokeColor=#E07A5F;fontColor=#393C56;" parent="1" source="5C2A1izxAcpHUWStIosM-1" target="5C2A1izxAcpHUWStIosM-14" edge="1">
          <mxGeometry relative="1" as="geometry" />
        </mxCell>
        <mxCell id="5C2A1izxAcpHUWStIosM-30" value="PASSAGE PAR UNE DEMANDE" style="edgeLabel;html=1;align=center;verticalAlign=middle;resizable=0;points=[];labelBackgroundColor=#F4F1DE;fontColor=#393C56;" parent="5C2A1izxAcpHUWStIosM-15" vertex="1" connectable="0">
          <mxGeometry x="-0.3968" y="-3" relative="1" as="geometry">
            <mxPoint as="offset" />
          </mxGeometry>
        </mxCell>
        <mxCell id="5C2A1izxAcpHUWStIosM-1" value="" style="shape=actor;whiteSpace=wrap;html=1;fillColor=#F2CC8F;strokeColor=#E07A5F;fontColor=#393C56;" parent="1" vertex="1">
          <mxGeometry x="394" y="20" width="40" height="60" as="geometry" />
        </mxCell>
        <mxCell id="5C2A1izxAcpHUWStIosM-27" value="" style="edgeStyle=orthogonalEdgeStyle;rounded=0;orthogonalLoop=1;jettySize=auto;html=1;labelBackgroundColor=#F4F1DE;strokeColor=#E07A5F;fontColor=#393C56;" parent="1" source="5C2A1izxAcpHUWStIosM-12" edge="1">
          <mxGeometry relative="1" as="geometry">
            <mxPoint x="570" y="220" as="targetPoint" />
          </mxGeometry>
        </mxCell>
        <mxCell id="5C2A1izxAcpHUWStIosM-12" value="SOUSCRIPTION PACK" style="whiteSpace=wrap;html=1;fillColor=#F2CC8F;strokeColor=#E07A5F;fontColor=#393C56;" parent="1" vertex="1">
          <mxGeometry x="640" y="190" width="160" height="60" as="geometry" />
        </mxCell>
        <mxCell id="5C2A1izxAcpHUWStIosM-19" value="" style="edgeStyle=orthogonalEdgeStyle;rounded=0;orthogonalLoop=1;jettySize=auto;html=1;labelBackgroundColor=#F4F1DE;strokeColor=#E07A5F;fontColor=#393C56;" parent="1" source="5C2A1izxAcpHUWStIosM-14" edge="1">
          <mxGeometry relative="1" as="geometry">
            <mxPoint x="260" y="220" as="targetPoint" />
          </mxGeometry>
        </mxCell>
        <mxCell id="5C2A1izxAcpHUWStIosM-14" value="DEMANDE DE RESSOURCE" style="whiteSpace=wrap;html=1;fillColor=#F2CC8F;strokeColor=#E07A5F;fontColor=#393C56;" parent="1" vertex="1">
          <mxGeometry x="10" y="190" width="170" height="60" as="geometry" />
        </mxCell>
        <mxCell id="5C2A1izxAcpHUWStIosM-35" value="" style="edgeStyle=orthogonalEdgeStyle;rounded=0;orthogonalLoop=1;jettySize=auto;html=1;labelBackgroundColor=#F4F1DE;strokeColor=#E07A5F;fontColor=#393C56;" parent="1" source="5C2A1izxAcpHUWStIosM-28" target="5C2A1izxAcpHUWStIosM-34" edge="1">
          <mxGeometry relative="1" as="geometry" />
        </mxCell>
        <mxCell id="5C2A1izxAcpHUWStIosM-28" value="TRAITEMENT" style="whiteSpace=wrap;html=1;fillColor=#F2CC8F;strokeColor=#E07A5F;fontColor=#393C56;" parent="1" vertex="1">
          <mxGeometry x="230" y="190" width="150" height="60" as="geometry" />
        </mxCell>
        <mxCell id="5C2A1izxAcpHUWStIosM-33" value="" style="edgeStyle=orthogonalEdgeStyle;rounded=0;orthogonalLoop=1;jettySize=auto;html=1;labelBackgroundColor=#F4F1DE;strokeColor=#E07A5F;fontColor=#393C56;" parent="1" source="5C2A1izxAcpHUWStIosM-31" edge="1">
          <mxGeometry relative="1" as="geometry">
            <mxPoint x="495" y="330" as="targetPoint" />
          </mxGeometry>
        </mxCell>
        <mxCell id="5C2A1izxAcpHUWStIosM-31" value="TRAITEMENT" style="whiteSpace=wrap;html=1;fillColor=#F2CC8F;strokeColor=#E07A5F;fontColor=#393C56;" parent="1" vertex="1">
          <mxGeometry x="420" y="190" width="150" height="60" as="geometry" />
        </mxCell>
        <mxCell id="5C2A1izxAcpHUWStIosM-50" value="" style="edgeStyle=orthogonalEdgeStyle;rounded=0;orthogonalLoop=1;jettySize=auto;html=1;labelBackgroundColor=#F4F1DE;strokeColor=#E07A5F;fontColor=#393C56;" parent="1" target="5C2A1izxAcpHUWStIosM-49" edge="1">
          <mxGeometry relative="1" as="geometry">
            <mxPoint x="495" y="390" as="sourcePoint" />
          </mxGeometry>
        </mxCell>
        <mxCell id="5C2A1izxAcpHUWStIosM-37" value="" style="edgeStyle=orthogonalEdgeStyle;rounded=0;orthogonalLoop=1;jettySize=auto;html=1;labelBackgroundColor=#F4F1DE;strokeColor=#E07A5F;fontColor=#393C56;" parent="1" source="5C2A1izxAcpHUWStIosM-34" target="5C2A1izxAcpHUWStIosM-36" edge="1">
          <mxGeometry relative="1" as="geometry" />
        </mxCell>
        <mxCell id="5C2A1izxAcpHUWStIosM-45" value="" style="edgeStyle=orthogonalEdgeStyle;rounded=0;orthogonalLoop=1;jettySize=auto;html=1;labelBackgroundColor=#F4F1DE;strokeColor=#E07A5F;fontColor=#393C56;" parent="1" source="5C2A1izxAcpHUWStIosM-34" target="5C2A1izxAcpHUWStIosM-44" edge="1">
          <mxGeometry relative="1" as="geometry" />
        </mxCell>
        <mxCell id="5C2A1izxAcpHUWStIosM-34" value="ETAT DEMANDE&amp;nbsp;" style="whiteSpace=wrap;html=1;fillColor=#F2CC8F;strokeColor=#E07A5F;fontColor=#393C56;" parent="1" vertex="1">
          <mxGeometry x="230" y="330" width="150" height="60" as="geometry" />
        </mxCell>
        <mxCell id="5C2A1izxAcpHUWStIosM-39" value="" style="edgeStyle=orthogonalEdgeStyle;rounded=0;orthogonalLoop=1;jettySize=auto;html=1;entryX=0.47;entryY=-0.047;entryDx=0;entryDy=0;entryPerimeter=0;labelBackgroundColor=#F4F1DE;strokeColor=#E07A5F;fontColor=#393C56;" parent="1" target="5C2A1izxAcpHUWStIosM-40" edge="1">
          <mxGeometry relative="1" as="geometry">
            <mxPoint x="102" y="490" as="sourcePoint" />
            <mxPoint x="102" y="550" as="targetPoint" />
            <Array as="points" />
          </mxGeometry>
        </mxCell>
        <mxCell id="5C2A1izxAcpHUWStIosM-36" value="ACCEPTEE" style="rhombus;whiteSpace=wrap;html=1;fillColor=#F2CC8F;strokeColor=#E07A5F;fontColor=#393C56;" parent="1" vertex="1">
          <mxGeometry x="62.5" y="410" width="80" height="80" as="geometry" />
        </mxCell>
        <mxCell id="5C2A1izxAcpHUWStIosM-40" value="AFFECTATION&amp;nbsp; RESSOURCE" style="whiteSpace=wrap;html=1;fillColor=#F2CC8F;strokeColor=#E07A5F;fontColor=#393C56;" parent="1" vertex="1">
          <mxGeometry x="10" y="570" width="195" height="60" as="geometry" />
        </mxCell>
        <mxCell id="5C2A1izxAcpHUWStIosM-42" value="MOTIF DU REJET" style="whiteSpace=wrap;html=1;fillColor=#F2CC8F;strokeColor=#E07A5F;fontColor=#393C56;" parent="1" vertex="1">
          <mxGeometry x="280" y="590" width="120" height="60" as="geometry" />
        </mxCell>
        <mxCell id="5C2A1izxAcpHUWStIosM-46" value="" style="edgeStyle=orthogonalEdgeStyle;rounded=0;orthogonalLoop=1;jettySize=auto;html=1;labelBackgroundColor=#F4F1DE;strokeColor=#E07A5F;fontColor=#393C56;" parent="1" source="5C2A1izxAcpHUWStIosM-44" target="5C2A1izxAcpHUWStIosM-42" edge="1">
          <mxGeometry relative="1" as="geometry" />
        </mxCell>
        <mxCell id="5C2A1izxAcpHUWStIosM-44" value="REJETEE" style="rhombus;whiteSpace=wrap;html=1;fillColor=#F2CC8F;strokeColor=#E07A5F;fontColor=#393C56;" parent="1" vertex="1">
          <mxGeometry x="240" y="470" width="80" height="80" as="geometry" />
        </mxCell>
        <mxCell id="5C2A1izxAcpHUWStIosM-52" value="" style="edgeStyle=orthogonalEdgeStyle;rounded=0;orthogonalLoop=1;jettySize=auto;html=1;labelBackgroundColor=#F4F1DE;strokeColor=#E07A5F;fontColor=#393C56;" parent="1" source="5C2A1izxAcpHUWStIosM-49" target="5C2A1izxAcpHUWStIosM-51" edge="1">
          <mxGeometry relative="1" as="geometry" />
        </mxCell>
        <mxCell id="5C2A1izxAcpHUWStIosM-49" value="EFFECTUEE" style="rhombus;whiteSpace=wrap;html=1;fontColor=#393C56;strokeColor=#E07A5F;fillColor=#F2CC8F;" parent="1" vertex="1">
          <mxGeometry x="455" y="460" width="80" height="80" as="geometry" />
        </mxCell>
        <mxCell id="5C2A1izxAcpHUWStIosM-51" value="AFFECTATION RESSOURCE" style="whiteSpace=wrap;html=1;fontColor=#393C56;strokeColor=#E07A5F;fillColor=#F2CC8F;" parent="1" vertex="1">
          <mxGeometry x="490" y="590" width="165" height="60" as="geometry" />
        </mxCell>
        <mxCell id="5C2A1izxAcpHUWStIosM-55" value="" style="edgeStyle=orthogonalEdgeStyle;rounded=0;orthogonalLoop=1;jettySize=auto;html=1;labelBackgroundColor=#F4F1DE;strokeColor=#E07A5F;fontColor=#393C56;" parent="1" source="5C2A1izxAcpHUWStIosM-53" target="5C2A1izxAcpHUWStIosM-54" edge="1">
          <mxGeometry relative="1" as="geometry" />
        </mxCell>
        <mxCell id="5C2A1izxAcpHUWStIosM-53" value="PAIEMENT" style="whiteSpace=wrap;html=1;fillColor=#F2CC8F;strokeColor=#E07A5F;fontColor=#393C56;" parent="1" vertex="1">
          <mxGeometry x="420" y="330" width="150" height="60" as="geometry" />
        </mxCell>
        <mxCell id="5C2A1izxAcpHUWStIosM-54" value="NON OK" style="rhombus;whiteSpace=wrap;html=1;fontColor=#393C56;strokeColor=#E07A5F;fillColor=#F2CC8F;" parent="1" vertex="1">
          <mxGeometry x="680" y="360" width="80" height="80" as="geometry" />
        </mxCell>
        <mxCell id="ODTZqU9LVVTNylpG4cjn-11" value="RECRUETUR" style="text;html=1;align=center;verticalAlign=middle;resizable=0;points=[];autosize=1;strokeColor=none;fillColor=none;fontColor=#393C56;" vertex="1" parent="1">
          <mxGeometry x="369" y="80" width="90" height="20" as="geometry" />
        </mxCell>
      </root>
    </mxGraphModel>
  </diagram>
</mxfile>
